<svg data-v-d3f97b9e="" xmlns="http://www.w3.org/2000/svg" viewBox="0 0 750.829859795377 163"><!----><!----><!----><g data-v-d3f97b9e="" id="209a5ff3-7294-43cd-8323-a6487e4f9572" fill="#DDBA2E" transform="matrix(5.8203864097595215,0,0,5.8203864097595215,-3.728691577911377,49.502464294433594)"><path d="M10.05 19.32L10.05 19.32L9.32 19.33L9.32 19.33Q8.33 19.33 8.10 19.03L8.10 19.03L8.10 19.03Q8.00 18.90 8.00 18.73L8.00 18.73L8.00 18.73Q8.00 18.56 8.12 18.49L8.12 18.49L8.12 18.49Q8.25 18.43 8.46 18.40L8.46 18.40L8.46 18.40Q8.67 18.38 8.75 18.33L8.75 18.33L8.75 18.33Q9.02 18.21 9.02 17.85L9.02 17.85L9.02 14.79L3.16 14.79L3.16 17.85L3.16 17.85Q3.16 18.15 3.32 18.28L3.32 18.28L3.32 18.28Q3.48 18.40 3.71 18.43L3.71 18.43L3.71 18.43Q3.94 18.45 4.01 18.47L4.01 18.47L4.01 18.47Q4.19 18.51 4.19 18.73L4.19 18.73L4.19 18.73Q4.19 18.95 4.09 19.08L4.09 19.08L4.09 19.08Q3.99 19.20 3.71 19.25L3.71 19.25L3.71 19.25Q3.36 19.32 2.41 19.32L2.41 19.32L2.41 19.32Q1.45 19.32 1.19 19.26L1.19 19.26L1.19 19.26Q0.66 19.13 0.64 18.70L0.64 18.70L0.64 18.70Q0.64 18.46 1.11 18.40L1.11 18.40L1.11 18.40Q1.33 18.37 1.40 18.33L1.40 18.33L1.40 18.33Q1.67 18.22 1.67 17.85L1.67 17.85L1.67 11.18L1.67 11.18Q1.67 10.66 1.16 10.62L1.16 10.62L1.16 10.62Q0.72 10.59 0.68 10.49L0.68 10.49L0.68 10.49Q0.64 10.40 0.64 10.24L0.64 10.24L0.64 10.24Q0.64 10.08 0.75 9.96L0.75 9.96L0.75 9.96Q0.85 9.83 1.11 9.78L1.11 9.78L1.11 9.78Q1.46 9.72 2.41 9.72L2.41 9.72L2.41 9.72Q3.36 9.72 3.63 9.78L3.63 9.78L3.63 9.78Q4.18 9.91 4.19 10.34L4.19 10.34L4.19 10.34Q4.19 10.58 3.71 10.64L3.71 10.64L3.71 10.64Q3.50 10.66 3.42 10.69L3.42 10.69L3.42 10.69Q3.16 10.80 3.16 11.18L3.16 11.18L3.16 14.01L9.02 14.01L9.02 11.18L9.02 11.18Q9.02 10.68 8.50 10.63L8.50 10.63L8.50 10.63Q8.16 10.60 8.08 10.51L8.08 10.51L8.08 10.51Q8.00 10.43 8.00 10.29L8.00 10.29L8.00 10.29Q8.00 10.15 8.06 10.05L8.06 10.05L8.06 10.05Q8.12 9.95 8.26 9.89L8.26 9.89L8.26 9.89Q8.39 9.83 8.52 9.79L8.52 9.79L8.52 9.79Q8.65 9.75 8.89 9.74L8.89 9.74L8.89 9.74Q9.24 9.72 9.47 9.72L9.47 9.72L9.73 9.72L9.73 9.72Q10.72 9.72 11.00 9.82L11.00 9.82L11.00 9.82Q11.54 10.01 11.54 10.34L11.54 10.34L11.54 10.34Q11.54 10.49 11.41 10.54L11.41 10.54L11.41 10.54Q11.28 10.60 11.07 10.63L11.07 10.63L11.07 10.63Q10.86 10.65 10.78 10.68L10.78 10.68L10.78 10.68Q10.51 10.81 10.51 11.18L10.51 11.18L10.51 17.85L10.51 17.85Q10.51 18.15 10.67 18.28L10.67 18.28L10.67 18.28Q10.83 18.40 11.06 18.43L11.06 18.43L11.06 18.43Q11.29 18.45 11.36 18.47L11.36 18.47L11.36 18.47Q11.54 18.51 11.54 18.69L11.54 18.69L11.54 18.69Q11.54 18.87 11.49 18.98L11.49 18.98L11.49 18.98Q11.44 19.09 11.31 19.15L11.31 19.15L11.31 19.15Q11.18 19.22 11.07 19.25L11.07 19.25L11.07 19.25Q10.97 19.28 10.75 19.30L10.75 19.30L10.75 19.30Q10.40 19.32 10.05 19.32ZM13.43 10.74L13.43 10.74L13.43 10.74Q13.43 10.44 13.72 10.18L13.72 10.18L13.72 10.18Q14.01 9.91 14.36 9.91L14.36 9.91L14.36 9.91Q14.70 9.91 15.03 10.12L15.03 10.12L15.03 10.12Q15.35 10.34 15.35 10.68L15.35 10.68L15.35 10.68Q15.35 11.03 15.08 11.27L15.08 11.27L15.08 11.27Q14.81 11.50 14.41 11.50L14.41 11.50L14.41 11.50Q14.01 11.50 13.72 11.29L13.72 11.29L13.72 11.29Q13.43 11.07 13.43 10.74ZM14.86 19.32L14.86 19.32L14.27 19.33L14.27 19.33Q13.38 19.33 13.17 19.05L13.17 19.05L13.17 19.05Q13.07 18.93 13.07 18.75L13.07 18.75L13.07 18.75Q13.07 18.58 13.21 18.51L13.21 18.51L13.21 18.51Q13.34 18.44 13.51 18.44L13.51 18.44L13.51 18.44Q13.68 18.43 13.82 18.33L13.82 18.33L13.82 18.33Q13.95 18.23 13.95 18.01L13.95 18.01L13.95 14.33L13.95 14.33Q13.95 13.71 13.47 13.67L13.47 13.67L13.47 13.67Q13.42 13.66 13.34 13.65L13.34 13.65L13.34 13.65Q13.27 13.64 13.23 13.64L13.23 13.64L13.23 13.64Q13.20 13.64 13.15 13.63L13.15 13.63L13.15 13.63Q13.10 13.62 13.07 13.60L13.07 13.60L13.07 13.60Q13.05 13.59 13.02 13.57L13.02 13.57L13.02 13.57Q12.97 13.54 12.97 13.37L12.97 13.37L12.97 13.37Q12.97 13.21 13.18 13.04L13.18 13.04L13.18 13.04Q13.57 12.73 14.22 12.73L14.22 12.73L14.22 12.73Q14.82 12.73 14.93 12.78L14.93 12.78L14.93 12.78Q15.03 12.82 15.11 12.88L15.11 12.88L15.11 12.88Q15.25 12.97 15.25 13.24L15.25 13.24L15.25 18.01L15.25 18.01Q15.25 18.41 15.69 18.43L15.69 18.43L15.69 18.43Q16.13 18.46 16.13 18.79L16.13 18.79L16.13 18.79Q16.13 19.16 15.72 19.25L15.72 19.25L15.72 19.25Q15.41 19.32 14.86 19.32ZM22.33 14.18L22.33 14.18Q22.04 13.81 21.50 13.59L21.50 13.59L21.50 13.59Q20.97 13.36 20.30 13.36L20.30 13.36L20.30 13.36Q19.64 13.36 19.17 13.75L19.17 13.75L19.17 13.75Q18.27 14.49 18.27 15.95L18.27 15.95L18.27 15.95Q18.27 17.08 18.88 17.86L18.88 17.86L18.88 17.86Q19.50 18.64 20.48 18.64L20.48 18.64L20.48 18.64Q21.46 18.64 21.89 18.23L21.89 18.23L21.89 18.23Q22.33 17.83 22.33 16.88L22.33 16.88L22.33 14.18ZM20.44 12.63L20.44 12.63L20.44 12.63Q20.89 12.63 21.45 12.77L21.45 12.77L21.45 12.77Q22.00 12.92 22.33 13.08L22.33 13.08L22.33 10.79L22.33 10.79Q22.33 10.17 21.83 10.12L21.83 10.12L21.83 10.12Q21.79 10.12 21.71 10.11L21.71 10.11L21.71 10.11Q21.64 10.10 21.60 10.10L21.60 10.10L21.60 10.10Q21.57 10.10 21.52 10.09L21.52 10.09L21.52 10.09Q21.46 10.08 21.44 10.06L21.44 10.06L21.44 10.06Q21.42 10.05 21.40 10.03L21.40 10.03L21.40 10.03Q21.35 9.99 21.35 9.83L21.35 9.83L21.35 9.83Q21.35 9.67 21.56 9.50L21.56 9.50L21.56 9.50Q21.94 9.19 22.59 9.19L22.59 9.19L22.59 9.19Q23.28 9.19 23.40 9.27L23.40 9.27L23.40 9.27Q23.63 9.43 23.63 9.70L23.63 9.70L23.63 17.18L23.63 17.18Q23.63 17.94 23.80 18.16L23.80 18.16L23.80 18.16Q23.97 18.38 24.10 18.43L24.10 18.43L24.10 18.43Q24.23 18.48 24.33 18.51L24.33 18.51L24.33 18.51Q24.43 18.55 24.47 18.56L24.47 18.56L24.47 18.56Q24.51 18.58 24.58 18.62L24.58 18.62L24.58 18.62Q24.68 18.68 24.68 18.81L24.68 18.81L24.68 18.81Q24.68 19.10 24.38 19.23L24.38 19.23L24.38 19.23Q24.08 19.37 23.57 19.37L23.57 19.37L23.57 19.37Q23.07 19.37 22.85 19.17L22.85 19.17L22.85 19.17Q22.62 18.98 22.45 18.47L22.45 18.47L22.45 18.47Q21.89 19.46 20.11 19.46L20.11 19.46L20.11 19.46Q18.69 19.46 17.80 18.52L17.80 18.52L17.80 18.52Q16.91 17.58 16.91 16.07L16.91 16.07L16.91 16.07Q16.91 14.57 17.90 13.60L17.90 13.60L17.90 13.60Q18.89 12.63 20.44 12.63ZM30.63 14.18L30.63 14.18Q30.34 13.81 29.81 13.59L29.81 13.59L29.81 13.59Q29.27 13.36 28.61 13.36L28.61 13.36L28.61 13.36Q27.95 13.36 27.48 13.75L27.48 13.75L27.48 13.75Q26.58 14.49 26.58 15.95L26.58 15.95L26.58 15.95Q26.58 17.08 27.19 17.86L27.19 17.86L27.19 17.86Q27.80 18.64 28.78 18.64L28.78 18.64L28.78 18.64Q29.76 18.64 30.20 18.23L30.20 18.23L30.20 18.23Q30.63 17.83 30.63 16.88L30.63 16.88L30.63 14.18ZM28.75 12.63L28.75 12.63L28.75 12.63Q29.20 12.63 29.75 12.77L29.75 12.77L29.75 12.77Q30.31 12.92 30.63 13.08L30.63 13.08L30.63 10.79L30.63 10.79Q30.63 10.17 30.14 10.12L30.14 10.12L30.14 10.12Q30.09 10.12 30.02 10.11L30.02 10.11L30.02 10.11Q29.94 10.10 29.91 10.10L29.91 10.10L29.91 10.10Q29.87 10.10 29.82 10.09L29.82 10.09L29.82 10.09Q29.77 10.08 29.75 10.06L29.75 10.06L29.75 10.06Q29.72 10.05 29.70 10.03L29.70 10.03L29.70 10.03Q29.65 9.99 29.65 9.83L29.65 9.83L29.65 9.83Q29.65 9.67 29.87 9.50L29.87 9.50L29.87 9.50Q30.25 9.19 30.90 9.19L30.90 9.19L30.90 9.19Q31.59 9.19 31.71 9.27L31.71 9.27L31.71 9.27Q31.94 9.43 31.94 9.70L31.94 9.70L31.94 17.18L31.94 17.18Q31.94 17.94 32.10 18.16L32.10 18.16L32.10 18.16Q32.27 18.38 32.41 18.43L32.41 18.43L32.41 18.43Q32.54 18.48 32.64 18.51L32.64 18.51L32.64 18.51Q32.74 18.55 32.78 18.56L32.78 18.56L32.78 18.56Q32.82 18.58 32.88 18.62L32.88 18.62L32.88 18.62Q32.99 18.68 32.99 18.81L32.99 18.81L32.99 18.81Q32.99 19.10 32.69 19.23L32.69 19.23L32.69 19.23Q32.38 19.37 31.88 19.37L31.88 19.37L31.88 19.37Q31.38 19.37 31.15 19.17L31.15 19.17L31.15 19.17Q30.93 18.98 30.75 18.47L30.75 18.47L30.75 18.47Q30.19 19.46 28.42 19.46L28.42 19.46L28.42 19.46Q27.00 19.46 26.10 18.52L26.10 18.52L26.10 18.52Q25.21 17.58 25.21 16.07L25.21 16.07L25.21 16.07Q25.21 14.57 26.20 13.60L26.20 13.60L26.20 13.60Q27.19 12.63 28.75 12.63ZM34.55 18.57L34.55 18.57L34.55 18.57Q33.61 17.64 33.61 16.11L33.61 16.11L33.61 16.11Q33.61 14.57 34.56 13.61L34.56 13.61L34.56 13.61Q35.51 12.65 36.99 12.65L36.99 12.65L36.99 12.65Q38.16 12.65 38.96 13.40L38.96 13.40L38.96 13.40Q39.76 14.16 39.76 15.30L39.76 15.30L39.76 15.30Q39.76 15.85 38.89 15.85L38.89 15.85L34.93 15.85L34.93 15.85Q34.95 16.96 35.65 17.72L35.65 17.72L35.65 17.72Q36.35 18.48 37.43 18.48L37.43 18.48L37.43 18.48Q38.14 18.48 38.81 18.06L38.81 18.06L38.81 18.06Q39.16 17.84 39.26 17.84L39.26 17.84L39.26 17.84Q39.36 17.84 39.49 17.94L39.49 17.94L39.49 17.94Q39.61 18.04 39.61 18.18L39.61 18.18L39.61 18.18Q39.61 18.56 39.13 18.88L39.13 18.88L39.13 18.88Q38.65 19.20 38.07 19.35L38.07 19.35L38.07 19.35Q37.49 19.50 37.05 19.50L37.05 19.50L37.05 19.50Q35.50 19.50 34.55 18.57ZM38.51 15.13L38.51 15.13L38.51 15.13Q38.49 14.35 38.10 13.86L38.10 13.86L38.10 13.86Q37.70 13.36 36.94 13.36L36.94 13.36L36.94 13.36Q36.18 13.36 35.60 13.91L35.60 13.91L35.60 13.91Q35.03 14.46 35 15.16L35 15.16L36.60 15.16L36.60 15.16Q37.67 15.16 38.51 15.13ZM42.55 19.32L42.55 19.32L41.96 19.33L41.96 19.33Q41.06 19.33 40.85 19.05L40.85 19.05L40.85 19.05Q40.76 18.93 40.76 18.75L40.76 18.75L40.76 18.75Q40.76 18.58 40.89 18.51L40.89 18.51L40.89 18.51Q41.03 18.44 41.20 18.44L41.20 18.44L41.20 18.44Q41.36 18.43 41.50 18.33L41.50 18.33L41.50 18.33Q41.64 18.23 41.64 18.01L41.64 18.01L41.64 14.11L41.64 14.11Q41.64 13.71 41.15 13.63L41.15 13.63L41.15 13.63Q40.80 13.58 40.73 13.51L40.73 13.51L40.73 13.51Q40.66 13.45 40.66 13.28L40.66 13.28L40.66 13.28Q40.66 13.11 40.90 12.97L40.90 12.97L40.90 12.97Q41.30 12.73 41.91 12.73L41.91 12.73L41.91 12.73Q42.53 12.73 42.70 12.90L42.70 12.90L42.70 12.90Q42.88 13.08 42.88 13.68L42.88 13.68L42.88 13.68Q43.81 12.62 45.45 12.62L45.45 12.62L45.45 12.62Q46.79 12.62 47.34 13.35L47.34 13.35L47.34 13.35Q47.90 14.08 47.90 15.55L47.90 15.55L47.90 18.01L47.90 18.01Q47.90 18.41 48.34 18.43L48.34 18.43L48.34 18.43Q48.78 18.46 48.78 18.79L48.78 18.79L48.78 18.79Q48.78 19.15 48.36 19.25L48.36 19.25L48.36 19.25Q48.04 19.32 47.49 19.32L47.49 19.32L46.90 19.33L46.90 19.33Q46.01 19.33 45.79 19.05L45.79 19.05L45.79 19.05Q45.70 18.93 45.70 18.75L45.70 18.75L45.70 18.75Q45.70 18.58 45.83 18.51L45.83 18.51L45.83 18.51Q45.97 18.44 46.14 18.44L46.14 18.44L46.14 18.44Q46.31 18.43 46.44 18.33L46.44 18.33L46.44 18.33Q46.58 18.23 46.58 18.01L46.58 18.01L46.58 16.02L46.58 16.02Q46.58 14.75 46.29 14.16L46.29 14.16L46.29 14.16Q45.96 13.50 44.97 13.50L44.97 13.50L44.97 13.50Q43.77 13.50 43.34 14.14L43.34 14.14L43.34 14.14Q42.94 14.74 42.94 16.06L42.94 16.06L42.94 18.01L42.94 18.01Q42.94 18.41 43.38 18.43L43.38 18.43L43.38 18.43Q43.82 18.46 43.82 18.79L43.82 18.79L43.82 18.79Q43.82 19.16 43.40 19.25L43.40 19.25L43.40 19.25Q43.10 19.32 42.55 19.32ZM59.51 18.02L59.51 18.02L59.51 18.02Q60.53 17.58 61.10 16.69L61.10 16.69L61.10 16.69Q61.68 15.80 61.68 14.72L61.68 14.72L61.68 14.72Q61.68 13.64 61.40 12.95L61.40 12.95L61.40 12.95Q61.11 12.25 60.62 11.80L60.62 11.80L60.62 11.80Q60.12 11.35 59.38 11.07L59.38 11.07L59.38 11.07Q58.02 10.55 55.85 10.55L55.85 10.55L55.85 10.55Q54.87 10.55 54.87 10.71L54.87 10.71L54.87 18.35L54.87 18.35Q55.95 18.46 57.22 18.46L57.22 18.46L57.22 18.46Q58.49 18.46 59.51 18.02ZM61.78 11.22L61.78 11.22Q62.43 11.73 62.82 12.49L62.82 12.49L62.82 12.49Q63.21 13.25 63.21 14.22L63.21 14.22L63.21 14.22Q63.21 15.18 62.91 16.01L62.91 16.01L62.91 16.01Q62.61 16.84 62.08 17.44L62.08 17.44L62.08 17.44Q61.55 18.05 60.82 18.47L60.82 18.47L60.82 18.47Q59.36 19.33 57.37 19.33L57.37 19.33L57.37 19.33Q56.66 19.31 54.91 19.31L54.91 19.31L54.91 19.31Q53.16 19.31 52.90 19.26L52.90 19.26L52.90 19.26Q52.38 19.12 52.36 18.70L52.36 18.70L52.36 18.70Q52.36 18.46 52.82 18.40L52.82 18.40L52.82 18.40Q53.04 18.37 53.12 18.33L53.12 18.33L53.12 18.33Q53.38 18.22 53.38 17.84L53.38 17.84L53.38 11.18L53.38 11.18Q53.38 10.66 52.87 10.62L52.87 10.62L52.87 10.62Q52.44 10.59 52.40 10.49L52.40 10.49L52.40 10.49Q52.36 10.40 52.36 10.24L52.36 10.24L52.36 10.24Q52.36 10.08 52.46 9.96L52.46 9.96L52.46 9.96Q52.56 9.83 52.83 9.78L52.83 9.78L52.83 9.78Q53.17 9.72 54.11 9.72L54.11 9.72L56.23 9.72L56.23 9.72Q59.84 9.72 61.78 11.22L61.78 11.22ZM64.73 18.57L64.73 18.57L64.73 18.57Q63.79 17.64 63.79 16.11L63.79 16.11L63.79 16.11Q63.79 14.57 64.74 13.61L64.74 13.61L64.74 13.61Q65.69 12.65 67.17 12.65L67.17 12.65L67.17 12.65Q68.34 12.65 69.14 13.40L69.14 13.40L69.14 13.40Q69.95 14.16 69.95 15.30L69.95 15.30L69.95 15.30Q69.95 15.85 69.07 15.85L69.07 15.85L65.11 15.85L65.11 15.85Q65.13 16.96 65.83 17.72L65.83 17.72L65.83 17.72Q66.53 18.48 67.61 18.48L67.61 18.48L67.61 18.48Q68.32 18.48 68.99 18.06L68.99 18.06L68.99 18.06Q69.34 17.84 69.44 17.84L69.44 17.84L69.44 17.84Q69.54 17.84 69.67 17.94L69.67 17.94L69.67 17.94Q69.79 18.04 69.79 18.18L69.79 18.18L69.79 18.18Q69.79 18.56 69.31 18.88L69.31 18.88L69.31 18.88Q68.83 19.20 68.25 19.35L68.25 19.35L68.25 19.35Q67.67 19.50 67.23 19.50L67.23 19.50L67.23 19.50Q65.68 19.50 64.73 18.57ZM68.69 15.13L68.69 15.13L68.69 15.13Q68.67 14.35 68.28 13.86L68.28 13.86L68.28 13.86Q67.88 13.36 67.12 13.36L67.12 13.36L67.12 13.36Q66.36 13.36 65.79 13.91L65.79 13.91L65.79 13.91Q65.21 14.46 65.18 15.16L65.18 15.16L66.78 15.16L66.78 15.16Q67.85 15.16 68.69 15.13ZM73.83 18.70L73.83 18.70L73.83 18.70Q75.37 18.70 75.37 17.75L75.37 17.75L75.37 17.75Q75.37 17.04 73.98 16.64L73.98 16.64L73.98 16.64Q73.72 16.56 73.35 16.46L73.35 16.46L73.35 16.46Q72.66 16.28 72.42 16.18L72.42 16.18L72.42 16.18Q71.82 15.95 71.40 15.50L71.40 15.50L71.40 15.50Q70.98 15.06 70.98 14.45L70.98 14.45L70.98 14.45Q70.98 13.67 71.73 13.15L71.73 13.15L71.73 13.15Q72.48 12.63 73.54 12.63L73.54 12.63L73.54 12.63Q74.57 12.63 75.48 13.00L75.48 13.00L75.48 13.00Q75.92 13.19 76.20 13.51L76.20 13.51L76.20 13.51Q76.47 13.84 76.47 14.20L76.47 14.20L76.47 14.20Q76.47 14.55 76.19 14.77L76.19 14.77L76.19 14.77Q75.91 14.98 75.60 14.98L75.60 14.98L75.60 14.98Q75.30 14.98 75.20 14.92L75.20 14.92L75.20 14.92Q75.10 14.86 75.10 14.65L75.10 14.65L75.10 14.65Q75.10 13.33 73.70 13.33L73.70 13.33L73.70 13.33Q73.12 13.33 72.69 13.59L72.69 13.59L72.69 13.59Q72.26 13.84 72.26 14.25L72.26 14.25L72.26 14.25Q72.26 14.90 73.60 15.27L73.60 15.27L73.60 15.27Q73.81 15.33 74.11 15.40L74.11 15.40L74.11 15.40Q74.41 15.48 74.66 15.56L74.66 15.56L74.66 15.56Q74.92 15.64 75.19 15.75L75.19 15.75L75.19 15.75Q75.47 15.85 75.78 16.02L75.78 16.02L75.78 16.02Q76.08 16.19 76.28 16.39L76.28 16.39L76.28 16.39Q76.72 16.84 76.72 17.48L76.72 17.48L76.72 17.48Q76.72 18.12 76.29 18.59L76.29 18.59L76.29 18.59Q75.43 19.50 73.83 19.50L73.83 19.50L73.83 19.50Q72.78 19.50 71.90 19.15L71.90 19.15L71.90 19.15Q71.45 18.98 71.18 18.66L71.18 18.66L71.18 18.66Q70.90 18.35 70.90 17.99L70.90 17.99L70.90 17.99Q70.90 17.64 71.13 17.44L71.13 17.44L71.13 17.44Q71.35 17.25 71.64 17.25L71.64 17.25L71.64 17.25Q71.93 17.25 72.13 17.42L72.13 17.42L72.13 17.42Q72.33 17.60 72.33 17.87L72.33 17.87L72.33 17.87Q72.33 18.13 72.28 18.43L72.28 18.43L72.28 18.43Q73.01 18.70 73.83 18.70ZM78.34 17.48L78.34 13.66L77.92 13.67L77.92 13.67Q77.67 13.67 77.55 13.62L77.55 13.62L77.55 13.62Q77.44 13.57 77.44 13.42L77.44 13.42L77.44 13.42Q77.44 13.26 77.57 13.14L77.57 13.14L77.57 13.14Q77.70 13.01 77.88 12.94L77.88 12.94L77.88 12.94Q78.35 12.75 78.44 12.62L78.44 12.62L78.44 12.62Q78.53 12.48 78.72 12.03L78.72 12.03L78.72 12.03Q79.17 10.90 79.48 10.90L79.48 10.90L79.48 10.90Q79.64 10.90 79.66 11.24L79.66 11.24L79.66 11.24Q79.69 11.58 79.69 11.76L79.69 11.76L79.69 11.76Q79.69 11.94 79.69 12.29L79.69 12.29L79.69 12.29Q79.68 12.64 79.68 12.78L79.68 12.78L81.31 12.78L81.31 12.78Q81.55 12.78 81.71 12.90L81.71 12.90L81.71 12.90Q81.87 13.02 81.87 13.22L81.87 13.22L81.87 13.22Q81.87 13.42 81.71 13.53L81.71 13.53L81.71 13.53Q81.55 13.64 81.31 13.64L81.31 13.64L79.68 13.64L79.67 17.13L79.67 17.13Q79.67 18.61 80.42 18.61L80.42 18.61L80.42 18.61Q80.62 18.61 81.03 18.49L81.03 18.49L81.03 18.49Q81.43 18.36 81.55 18.36L81.55 18.36L81.55 18.36Q81.83 18.36 81.83 18.68L81.83 18.68L81.83 18.68Q81.83 18.94 81.17 19.19L81.17 19.19L81.17 19.19Q80.51 19.44 79.82 19.44L79.82 19.44L79.82 19.44Q79.13 19.44 78.73 18.90L78.73 18.90L78.73 18.90Q78.34 18.36 78.34 17.48L78.34 17.48ZM83.69 10.74L83.69 10.74L83.69 10.74Q83.69 10.44 83.98 10.18L83.98 10.18L83.98 10.18Q84.27 9.91 84.61 9.91L84.61 9.91L84.61 9.91Q84.96 9.91 85.28 10.12L85.28 10.12L85.28 10.12Q85.61 10.34 85.61 10.68L85.61 10.68L85.61 10.68Q85.61 11.03 85.33 11.27L85.33 11.27L85.33 11.27Q85.06 11.50 84.66 11.50L84.66 11.50L84.66 11.50Q84.27 11.50 83.98 11.29L83.98 11.29L83.98 11.29Q83.69 11.07 83.69 10.74ZM85.11 19.32L85.11 19.32L84.53 19.33L84.53 19.33Q83.63 19.33 83.42 19.05L83.42 19.05L83.42 19.05Q83.32 18.93 83.32 18.75L83.32 18.75L83.32 18.75Q83.32 18.58 83.46 18.51L83.46 18.51L83.46 18.51Q83.60 18.44 83.76 18.44L83.76 18.44L83.76 18.44Q83.93 18.43 84.07 18.33L84.07 18.33L84.07 18.33Q84.21 18.23 84.21 18.01L84.21 18.01L84.21 14.33L84.21 14.33Q84.21 13.71 83.72 13.67L83.72 13.67L83.72 13.67Q83.67 13.66 83.60 13.65L83.60 13.65L83.60 13.65Q83.52 13.64 83.49 13.64L83.49 13.64L83.49 13.64Q83.45 13.64 83.40 13.63L83.40 13.63L83.40 13.63Q83.35 13.62 83.33 13.60L83.33 13.60L83.33 13.60Q83.30 13.59 83.28 13.57L83.28 13.57L83.28 13.57Q83.23 13.54 83.23 13.37L83.23 13.37L83.23 13.37Q83.23 13.21 83.43 13.04L83.43 13.04L83.43 13.04Q83.82 12.73 84.47 12.73L84.47 12.73L84.47 12.73Q85.07 12.73 85.18 12.78L85.18 12.78L85.18 12.78Q85.29 12.82 85.36 12.88L85.36 12.88L85.36 12.88Q85.50 12.97 85.50 13.24L85.50 13.24L85.50 18.01L85.50 18.01Q85.50 18.41 85.94 18.43L85.94 18.43L85.94 18.43Q86.39 18.46 86.39 18.79L86.39 18.79L86.39 18.79Q86.39 19.16 85.98 19.25L85.98 19.25L85.98 19.25Q85.66 19.32 85.11 19.32ZM89.39 19.32L89.39 19.32L88.80 19.33L88.80 19.33Q87.90 19.33 87.69 19.05L87.69 19.05L87.69 19.05Q87.60 18.93 87.60 18.75L87.60 18.75L87.60 18.75Q87.60 18.58 87.73 18.51L87.73 18.51L87.73 18.51Q87.87 18.44 88.04 18.44L88.04 18.44L88.04 18.44Q88.20 18.43 88.34 18.33L88.34 18.33L88.34 18.33Q88.48 18.23 88.48 18.01L88.48 18.01L88.48 14.11L88.48 14.11Q88.48 13.71 87.99 13.63L87.99 13.63L87.99 13.63Q87.64 13.58 87.57 13.51L87.57 13.51L87.57 13.51Q87.50 13.45 87.50 13.28L87.50 13.28L87.50 13.28Q87.50 13.11 87.74 12.97L87.74 12.97L87.74 12.97Q88.14 12.73 88.75 12.73L88.75 12.73L88.75 12.73Q89.37 12.73 89.54 12.90L89.54 12.90L89.54 12.90Q89.71 13.08 89.71 13.68L89.71 13.68L89.71 13.68Q90.65 12.62 92.29 12.62L92.29 12.62L92.29 12.62Q93.63 12.62 94.18 13.35L94.18 13.35L94.18 13.35Q94.74 14.08 94.74 15.55L94.74 15.55L94.74 18.01L94.74 18.01Q94.74 18.41 95.18 18.43L95.18 18.43L95.18 18.43Q95.62 18.46 95.62 18.79L95.62 18.79L95.62 18.79Q95.62 19.15 95.20 19.25L95.20 19.25L95.20 19.25Q94.88 19.32 94.33 19.32L94.33 19.32L93.74 19.33L93.74 19.33Q92.85 19.33 92.63 19.05L92.63 19.05L92.63 19.05Q92.54 18.93 92.54 18.75L92.54 18.75L92.54 18.75Q92.54 18.58 92.67 18.51L92.67 18.51L92.67 18.51Q92.81 18.44 92.98 18.44L92.98 18.44L92.98 18.44Q93.15 18.43 93.28 18.33L93.28 18.33L93.28 18.33Q93.42 18.23 93.42 18.01L93.42 18.01L93.42 16.02L93.42 16.02Q93.42 14.75 93.13 14.16L93.13 14.16L93.13 14.16Q92.80 13.50 91.81 13.50L91.81 13.50L91.81 13.50Q90.61 13.50 90.18 14.14L90.18 14.14L90.18 14.14Q89.78 14.74 89.78 16.06L89.78 16.06L89.78 18.01L89.78 18.01Q89.78 18.41 90.22 18.43L90.22 18.43L90.22 18.43Q90.66 18.46 90.66 18.79L90.66 18.79L90.66 18.79Q90.66 19.16 90.24 19.25L90.24 19.25L90.24 19.25Q89.94 19.32 89.39 19.32ZM97.65 14.98L97.65 14.98L97.65 14.98Q97.39 14.98 97.07 14.78L97.07 14.78L97.07 14.78Q96.76 14.58 96.76 14.26L96.76 14.26L96.76 14.26Q96.76 13.93 96.94 13.64L96.94 13.64L96.94 13.64Q97.13 13.36 97.42 13.18L97.42 13.18L97.42 13.18Q97.71 13.00 98.10 12.87L98.10 12.87L98.10 12.87Q98.81 12.65 99.63 12.65L99.63 12.65L99.63 12.65Q101.01 12.65 101.64 13.26L101.64 13.26L101.64 13.26Q102.27 13.87 102.27 15.28L102.27 15.28L102.26 17.29L102.26 17.29Q102.26 18.03 102.44 18.21L102.44 18.21L102.44 18.21Q102.49 18.26 102.74 18.33L102.74 18.33L102.74 18.33Q103.44 18.55 103.44 18.67L103.44 18.67L103.44 18.67Q103.44 19.39 101.97 19.39L101.97 19.39L101.97 19.39Q101.42 19.39 101.25 19.14L101.25 19.14L101.25 19.14Q101.08 18.89 101.07 18.25L101.07 18.25L101.07 18.25Q100.76 18.80 100.13 19.14L100.13 19.14L100.13 19.14Q99.50 19.48 98.79 19.48L98.79 19.48L98.79 19.48Q98.07 19.48 97.57 19.30L97.57 19.30L97.57 19.30Q97.07 19.11 96.76 18.70L96.76 18.70L96.76 18.70Q96.45 18.29 96.45 17.81L96.45 17.81L96.45 17.81Q96.45 17.33 96.56 17.04L96.56 17.04L96.56 17.04Q96.67 16.75 96.83 16.55L96.83 16.55L96.83 16.55Q97.00 16.35 97.28 16.19L97.28 16.19L97.28 16.19Q97.56 16.04 97.81 15.94L97.81 15.94L97.81 15.94Q98.05 15.85 98.44 15.78L98.44 15.78L98.44 15.78Q99.02 15.67 99.41 15.62L99.41 15.62L99.41 15.62Q99.80 15.58 99.81 15.57L99.81 15.57L99.81 15.57Q99.85 15.57 100.28 15.52L100.28 15.52L100.28 15.52Q100.71 15.48 100.95 15.34L100.95 15.34L100.95 15.34Q100.95 14.04 100.60 13.64L100.60 13.64L100.60 13.64Q100.30 13.30 99.59 13.30L99.59 13.30L99.59 13.30Q98.89 13.30 98.54 13.66L98.54 13.66L98.54 13.66Q98.18 14.02 98.18 14.80L98.18 14.80L98.19 14.95L98.19 14.95Q97.90 14.98 97.65 14.98ZM100.95 15.96L100.95 15.96L100.95 15.96Q100.49 16.13 99.90 16.19L99.90 16.19L99.90 16.19Q99.32 16.26 98.98 16.34L98.98 16.34L98.98 16.34Q98.65 16.43 98.42 16.56L98.42 16.56L98.42 16.56Q97.90 16.86 97.90 17.60L97.90 17.60L97.90 17.60Q97.90 18.77 99.27 18.77L99.27 18.77L99.27 18.77Q100.45 18.77 100.77 17.64L100.77 17.64L100.77 17.64Q100.95 17.00 100.95 15.96ZM104.70 17.48L104.70 13.66L104.28 13.67L104.28 13.67Q104.03 13.67 103.91 13.62L103.91 13.62L103.91 13.62Q103.80 13.57 103.80 13.42L103.80 13.42L103.80 13.42Q103.80 13.26 103.93 13.14L103.93 13.14L103.93 13.14Q104.06 13.01 104.23 12.94L104.23 12.94L104.23 12.94Q104.71 12.75 104.80 12.62L104.80 12.62L104.80 12.62Q104.89 12.48 105.08 12.03L105.08 12.03L105.08 12.03Q105.53 10.90 105.84 10.90L105.84 10.90L105.84 10.90Q106.00 10.90 106.02 11.24L106.02 11.24L106.02 11.24Q106.05 11.58 106.05 11.76L106.05 11.76L106.05 11.76Q106.05 11.94 106.05 12.29L106.05 12.29L106.05 12.29Q106.04 12.64 106.04 12.78L106.04 12.78L107.67 12.78L107.67 12.78Q107.91 12.78 108.07 12.90L108.07 12.90L108.07 12.90Q108.23 13.02 108.23 13.22L108.23 13.22L108.23 13.22Q108.23 13.42 108.07 13.53L108.07 13.53L108.07 13.53Q107.91 13.64 107.67 13.64L107.67 13.64L106.04 13.64L106.03 17.13L106.03 17.13Q106.03 18.61 106.78 18.61L106.78 18.61L106.78 18.61Q106.98 18.61 107.39 18.49L107.39 18.49L107.39 18.49Q107.79 18.36 107.91 18.36L107.91 18.36L107.91 18.36Q108.19 18.36 108.19 18.68L108.19 18.68L108.19 18.68Q108.19 18.94 107.53 19.19L107.53 19.19L107.53 19.19Q106.87 19.44 106.18 19.44L106.18 19.44L106.18 19.44Q105.49 19.44 105.09 18.90L105.09 18.90L105.09 18.90Q104.70 18.36 104.70 17.48L104.70 17.48ZM110.04 10.74L110.04 10.74L110.04 10.74Q110.04 10.44 110.34 10.18L110.34 10.18L110.34 10.18Q110.63 9.91 110.97 9.91L110.97 9.91L110.97 9.91Q111.32 9.91 111.64 10.12L111.64 10.12L111.64 10.12Q111.97 10.34 111.97 10.68L111.97 10.68L111.97 10.68Q111.97 11.03 111.69 11.27L111.69 11.27L111.69 11.27Q111.42 11.50 111.02 11.50L111.02 11.50L111.02 11.50Q110.63 11.50 110.34 11.29L110.34 11.29L110.34 11.29Q110.04 11.07 110.04 10.74ZM111.47 19.32L111.47 19.32L110.89 19.33L110.89 19.33Q109.99 19.33 109.78 19.05L109.78 19.05L109.78 19.05Q109.68 18.93 109.68 18.75L109.68 18.75L109.68 18.75Q109.68 18.58 109.82 18.51L109.82 18.51L109.82 18.51Q109.96 18.44 110.12 18.44L110.12 18.44L110.12 18.44Q110.29 18.43 110.43 18.33L110.43 18.33L110.43 18.33Q110.56 18.23 110.56 18.01L110.56 18.01L110.56 14.33L110.56 14.33Q110.56 13.71 110.08 13.67L110.08 13.67L110.08 13.67Q110.03 13.66 109.96 13.65L109.96 13.65L109.96 13.65Q109.88 13.64 109.85 13.64L109.85 13.64L109.85 13.64Q109.81 13.64 109.76 13.63L109.76 13.63L109.76 13.63Q109.71 13.62 109.69 13.60L109.69 13.60L109.69 13.60Q109.66 13.59 109.63 13.57L109.63 13.57L109.63 13.57Q109.59 13.54 109.59 13.37L109.59 13.37L109.59 13.37Q109.59 13.21 109.79 13.04L109.79 13.04L109.79 13.04Q110.18 12.73 110.83 12.73L110.83 12.73L110.83 12.73Q111.43 12.73 111.54 12.78L111.54 12.78L111.54 12.78Q111.64 12.82 111.72 12.88L111.72 12.88L111.72 12.88Q111.86 12.97 111.86 13.24L111.86 13.24L111.86 18.01L111.86 18.01Q111.86 18.41 112.30 18.43L112.30 18.43L112.30 18.43Q112.75 18.46 112.75 18.79L112.75 18.79L112.75 18.79Q112.75 19.16 112.33 19.25L112.33 19.25L112.33 19.25Q112.02 19.32 111.47 19.32ZM117.04 19.49L117.04 19.49L117.04 19.49Q115.49 19.49 114.55 18.52L114.55 18.52L114.55 18.52Q113.61 17.54 113.61 16.04L113.61 16.04L113.61 16.04Q113.61 15.05 114.11 14.27L114.11 14.27L114.11 14.27Q114.60 13.49 115.46 13.07L115.46 13.07L115.46 13.07Q116.31 12.66 117.35 12.66L117.35 12.66L117.35 12.66Q118.86 12.66 119.83 13.60L119.83 13.60L119.83 13.60Q120.81 14.53 120.81 16.02L120.81 16.02L120.81 16.02Q120.81 17.04 120.31 17.84L120.31 17.84L120.31 17.84Q119.81 18.63 118.95 19.06L118.95 19.06L118.95 19.06Q118.10 19.49 117.04 19.49ZM117.32 18.73L117.32 18.73L117.32 18.73Q118.34 18.73 118.91 18.04L118.91 18.04L118.91 18.04Q119.48 17.35 119.48 16.20L119.48 16.20L119.48 16.20Q119.48 15.05 118.82 14.22L118.82 14.22L118.82 14.22Q118.17 13.38 117.14 13.38L117.14 13.38L117.14 13.38Q116.11 13.38 115.55 14.09L115.55 14.09L115.55 14.09Q115.00 14.79 115.00 15.93L115.00 15.93L115.00 15.93Q115.00 17.08 115.65 17.90L115.65 17.90L115.65 17.90Q116.30 18.73 117.32 18.73ZM123.41 19.32L123.41 19.32L122.82 19.33L122.82 19.33Q121.93 19.33 121.71 19.05L121.71 19.05L121.71 19.05Q121.62 18.93 121.62 18.75L121.62 18.75L121.62 18.75Q121.62 18.58 121.75 18.51L121.75 18.51L121.75 18.51Q121.89 18.44 122.06 18.44L122.06 18.44L122.06 18.44Q122.23 18.43 122.36 18.33L122.36 18.33L122.36 18.33Q122.50 18.23 122.50 18.01L122.50 18.01L122.50 14.11L122.50 14.11Q122.50 13.71 122.01 13.63L122.01 13.63L122.01 13.63Q121.67 13.58 121.59 13.51L121.59 13.51L121.59 13.51Q121.52 13.45 121.52 13.28L121.52 13.28L121.52 13.28Q121.52 13.11 121.76 12.97L121.76 12.97L121.76 12.97Q122.17 12.73 122.78 12.73L122.78 12.73L122.78 12.73Q123.39 12.73 123.56 12.90L123.56 12.90L123.56 12.90Q123.74 13.08 123.74 13.68L123.74 13.68L123.74 13.68Q124.67 12.62 126.31 12.62L126.31 12.62L126.31 12.62Q127.65 12.62 128.20 13.35L128.20 13.35L128.20 13.35Q128.76 14.08 128.76 15.55L128.76 15.55L128.76 18.01L128.76 18.01Q128.76 18.41 129.20 18.43L129.20 18.43L129.20 18.43Q129.64 18.46 129.64 18.79L129.64 18.79L129.64 18.79Q129.64 19.15 129.22 19.25L129.22 19.25L129.22 19.25Q128.91 19.32 128.35 19.32L128.35 19.32L127.76 19.33L127.76 19.33Q126.87 19.33 126.66 19.05L126.66 19.05L126.66 19.05Q126.56 18.93 126.56 18.75L126.56 18.75L126.56 18.75Q126.56 18.58 126.70 18.51L126.70 18.51L126.70 18.51Q126.83 18.44 127.00 18.44L127.00 18.44L127.00 18.44Q127.17 18.43 127.31 18.33L127.31 18.33L127.31 18.33Q127.44 18.23 127.44 18.01L127.44 18.01L127.44 16.02L127.44 16.02Q127.44 14.75 127.15 14.16L127.15 14.16L127.15 14.16Q126.82 13.50 125.83 13.50L125.83 13.50L125.83 13.50Q124.63 13.50 124.20 14.14L124.20 14.14L124.20 14.14Q123.80 14.74 123.80 16.06L123.80 16.06L123.80 18.01L123.80 18.01Q123.80 18.41 124.24 18.43L124.24 18.43L124.24 18.43Q124.68 18.46 124.68 18.79L124.68 18.79L124.68 18.79Q124.68 19.16 124.26 19.25L124.26 19.25L124.26 19.25Q123.96 19.32 123.41 19.32Z"></path></g><!----><g data-v-d3f97b9e="" id="d60e9088-94a7-406e-ae97-a26a4c0069f5" transform="matrix(1.0306880474090576,0,0,1.0306880474090576,324.4656066894531,-6.194558620452881)" stroke="none" fill="#DDBA2E"><path d="M94.973 71.267h.003L95 71.21l-.027.057zM76.963 46.598l-12.255-.782-3.128-11.212 6.518-9.126-1.304-5.107 6.012-6.771c-.249-.165-.515-.306-.767-.466l-6.2 2.389 2.174-4.65a43.269 43.269 0 0 0-9.938-3.518l-4.403 3.956s-3.303-.435-4.997-.695c-1.006-.155-.817-2.441-.498-4.277a43.863 43.863 0 0 0-4.329.256l-.258.632h-2.607l-.524-.115a43.272 43.272 0 0 0-11.275 3.835l1.631 1.495 9.647-2.868 3.129 5.949L26.38 27.948l-1.825 3.779-3.911-2.599-5.215 2.599-.261 3.137 2.347 1.304 3.129-1.043 5.215 7.272 5.215-2.057 10.821 5.084 9.908 8.344-4.041 9.716-9.647 13.619v6.998l-4.693-2.389-2.868-19.992-5.997-7.301v-9.908l-8.344-5.997-6.259-1.824-1.474-3.802A43.533 43.533 0 0 0 5 49.987c0 21.842 16.051 39.885 36.99 43.109l3.337-5.303 2.389 5.818c.321.007.634.048.957.048 16.616 0 31.061-9.281 38.443-22.94h-5.199l-4.954-24.121zM29.77 36.951h-1.89l-3.194-3.129 3.781.652h2.607l-1.304 2.477z"></path><path d="M75.79 24.106l3.194 3.842 6.971-.623a43.818 43.818 0 0 0-4.443-6.066l-.507 2.916-5.867-3.911-4.824 3.911 5.476-.069z"></path></g><!----></svg>